PathFileType	4	(X/Y/Z)	5_coords_data.trc
DataRate	CameraRate	NumFrames	NumMarkers	Units	OrigDataRate	OrigDataStartFrame	OrigNumFrames
30.0	30.0	8	21	m	30.0	58	67
Frame#	Time	THUMB_TIP	THUMB_IP	THUMB_MCP	THUMB_CMC	INDEX_TIP	INDEX_DIP	INDEX_PIP	INDEX_MCP	MIDDLE_TIP	MIDDLE_DIP	MIDDLE_PIP	MIDDLE_MCP	RING_TIP	RING_DIP	RING_PIP	RING_MCP	PINKY_TIP	PINKY_DIP	PINKY_PIP	PINKY_MCP	WRIST
X1	Y1	Z1	X2	Y2	Z2	X3	Y3	Z3	X4	Y4	Z4	X5	Y5	Z5	X6	Y6	Z6	X7	Y7	Z7	X8	Y8	Z8	X9	Y9	Z9	X10	Y10	Z10	X11	Y11	Z11	X12	Y12	Z12	X13	Y13	Z13	X14	Y14	Z14	X15	Y15	Z15	X16	Y16	Z16	X17	Y17	Z17	X18	Y18	Z18	X19	Y19	Z19	X20	Y20	Z20	X21	Y21	Z21
57	1.9	-0.001052940011024475	-0.10034600067138671	0.9854710083007813	-0.012571499824523926	-0.08809559631347656	1.0064099731445313	-0.02828339958190918	-0.08711509704589844	1.0331300048828125	-0.0367863998413086	-0.05931430053710938	1.0466600341796874	-0.006412330150604248	-0.08735109710693359	0.9294569702148437	-0.022648799896240236	-0.08599880218505859	0.9443560180664062	-0.03913510131835937	-0.08395929718017578	0.9613300170898438	-0.05518840026855469	-0.07885890197753906	0.9955059814453125	-0.0012325199842453001	-0.06189970016479492	0.916552001953125	-0.017761600494384765	-0.06228219985961914	0.9335919799804687	-0.038226200103759767	-0.061379199981689454	0.9550679931640625	-0.057472599029541015	-0.058158599853515625	0.9902830200195313	-0.0030724799633026116	-0.03951020050048828	0.9207650146484375	-0.019072500228881836	-0.038385398864746095	0.937031005859375	-0.038292301177978515	-0.03797090148925781	0.9570390014648438	-0.054333999633789064	-0.03923759841918945	0.9921519775390625	-0.012067899703979493	-0.017930500030517577	0.9395910034179688	-0.025377099990844726	-0.017755800247192383	0.9543510131835937	-0.036525398254394534	-0.019009500503540038	0.9693930053710937	-0.045810501098632814	-0.0225132999420166	0.9950700073242188	-0.05694279861450195	-0.032165401458740236	1.0635799560546875
58	1.9333333333333333	-0.00104721999168396	-0.100072998046875	0.9853699951171875	-0.01247309970855713	-0.08778520202636719	1.0061699829101562	-0.02823349952697754	-0.08662999725341797	1.033010009765625	-0.036827701568603516	-0.058965099334716796	1.0466300048828125	-0.006737689971923828	-0.08660780334472656	0.9291480102539063	-0.02287179946899414	-0.0853405990600586	0.9441510009765625	-0.039264198303222655	-0.08336519622802735	0.9611820068359375	-0.05533240127563477	-0.07840360260009765	0.9955170288085937	-0.001397989988327026	-0.06105970001220703	0.9163939819335938	-0.017917999267578123	-0.06153379821777344	0.9334639892578125	-0.038316299438476566	-0.06072370147705078	0.9549869995117187	-0.05738669967651367	-0.057643699645996097	0.990094970703125	-0.003307260036468506	-0.038651798248291014	0.9207020263671875	-0.019278299331665038	-0.037597900390625	0.9370430297851563	-0.03834510040283203	-0.03729840087890625	0.9569819946289062	-0.05448979949951172	-0.038687599182128905	0.9921719970703125	-0.012323200225830078	-0.017213100433349608	0.939572998046875	-0.02565760040283203	-0.01703879928588867	0.9543839721679688	-0.03669350051879883	-0.018356800079345703	0.9695009765625	-0.04600170135498047	-0.02198550033569336	0.99514599609375	-0.05711589813232422	-0.03183480072021484	1.063760009765625
59	1.9666666666666666	-0.0008350440263748161	-0.10009400177001954	0.985676025390625	-0.012310700416564941	-0.08762039947509766	1.0063200073242187	-0.02827239990234375	-0.08648680114746093	1.033010009765625	-0.036839000701904295	-0.0586781005859375	1.0465699462890625	-0.006623320102691651	-0.0860824966430664	0.9290330200195313	-0.022767400741577147	-0.08485649871826172	0.94402197265625	-0.039202098846435544	-0.08293589782714844	0.9610449829101563	-0.05532889938354492	-0.07806089782714844	0.9952969970703125	-0.0013430700302124018	-0.06048379898071289	0.916291015625	-0.017844400405883788	-0.060980701446533205	0.9333989868164062	-0.03829090118408203	-0.06025669860839844	0.9549320068359375	-0.0574182014465332	-0.05721989822387695	0.99014697265625	-0.003334949970245361	-0.03802980041503906	0.9206329956054687	-0.019300899505615234	-0.037002300262451174	0.9369940185546874	-0.03843519973754883	-0.036750999450683594	0.956968994140625	-0.05447779846191406	-0.03829259872436523	0.992093994140625	-0.012431599617004395	-0.016563800811767577	0.9395380249023437	-0.025723100662231446	-0.01646699905395508	0.9544390258789063	-0.03683549880981445	-0.017842300415039064	0.9695009765625	-0.0460364990234375	-0.02160300064086914	0.99518701171875	-0.057017398834228517	-0.03164949989318848	1.063530029296875
60	2.0	-0.000407929986715316	-0.10014900207519531	0.98610498046875	-0.012031000137329101	-0.0876636962890625	1.0063499755859375	-0.028178300857543945	-0.08626339721679688	1.033050048828125	-0.03684360122680664	-0.058548999786376954	1.0464599609375	-0.0067128300666809086	-0.08572129821777344	0.9287160034179688	-0.02283180046081543	-0.08448249816894532	0.9438309936523438	-0.039221900939941406	-0.08263099670410157	0.9608670043945312	-0.05516510009765625	-0.0777770004272461	0.9953380126953125	-0.00124714994430542	-0.060035301208496095	0.9161909790039062	-0.017785200119018553	-0.06058760070800781	0.9332990112304688	-0.03821279907226562	-0.05989989852905273	0.954885986328125	-0.05735340118408203	-0.05695800018310547	0.9900689697265626	-0.003239789962768554	-0.037551700592041014	0.9205709838867188	-0.01925480079650879	-0.03660800170898437	0.9369739990234375	-0.03832809829711914	-0.036423500061035154	0.9568519897460938	-0.05449589920043945	-0.03802239990234375	0.9919819946289062	-0.012444999694824219	-0.01604240036010742	0.9395009765625	-0.025686199188232423	-0.01603860092163086	0.9543759765625	-0.03680889892578125	-0.017483999252319336	0.96947998046875	-0.04607839965820312	-0.0213617000579834	0.9950650024414063	-0.05708869934082031	-0.03139439964294433	1.063510009765625
61	2.033333333333333	-0.000192822992801666	-0.10017900085449219	0.9861840209960937	-0.011846400260925294	-0.08759320068359375	1.006280029296875	-0.028030399322509766	-0.08618409729003906	1.032969970703125	-0.03684600067138672	-0.05844020080566406	1.0464000244140625	-0.006808879852294922	-0.08544090270996094	0.9284229736328125	-0.022875699996948242	-0.08425930023193359	0.9435670166015625	-0.03920980072021484	-0.08244000244140624	0.960666015625	-0.05510260009765625	-0.07763050079345703	0.9951530151367187	-0.0013507100343704218	-0.059706501007080075	0.9159559936523437	-0.01780190086364746	-0.060293399810791015	0.9331220092773438	-0.038195999145507815	-0.05967279815673828	0.9547930297851562	-0.05735810089111328	-0.05683039855957031	0.9897520141601562	-0.003463310003280639	-0.03724250030517578	0.9203499755859375	-0.019375	-0.03634400177001953	0.9367890014648438	-0.038461799621582034	-0.03619160079956055	0.9568189697265626	-0.05446609878540039	-0.03786180114746094	0.9919650268554687	-0.012701600074768067	-0.01564509963989258	0.9392630004882813	-0.025920299530029296	-0.015697799682617187	0.9541370239257813	-0.03692060089111328	-0.017225900650024415	0.9693389892578125	-0.04610879898071289	-0.02119099998474121	0.994958984375	-0.056984901428222656	-0.03139509963989258	1.0633399658203124
62	2.066666666666667	0.000208498001098632	-0.10020700073242188	0.986301025390625	-0.011595199584960938	-0.08760299682617187	1.0063900146484375	-0.02799090003967285	-0.08619609832763672	1.0329300537109376	-0.03684339904785156	-0.05844229888916016	1.046239990234375	-0.006830840110778808	-0.08522889709472656	0.9281589965820313	-0.022876100540161134	-0.08407230377197265	0.9433419799804688	-0.03921120071411133	-0.08229109954833984	0.9604349975585937	-0.05522169876098633	-0.07755000305175781	0.9948049926757813	-0.001368489980697631	-0.05948720169067383	0.915780029296875	-0.017810400009155274	-0.06009130096435547	0.9329329833984376	-0.03819329833984375	-0.059532100677490235	0.9545780029296875	-0.05726319885253906	-0.056695899963378905	0.9895819702148437	-0.003643239974975586	-0.03697249984741211	0.9200770263671875	-0.01952400016784668	-0.036126899719238284	0.93660400390625	-0.038567100524902344	-0.03604510116577148	0.9566199951171875	-0.0545625	-0.03774929809570313	0.9916640014648438	-0.01305370044708252	-0.015279800415039062	0.9390269775390625	-0.026176000595092775	-0.015445599555969238	0.9539879760742187	-0.037155601501464845	-0.017052600860595703	0.9691240234375	-0.04619089889526367	-0.02111039924621582	0.994698974609375	-0.05704520034790039	-0.031359800338745115	1.0631300048828125
63	2.1	0.000782190024852752	-0.10030799865722656	0.9866829833984375	-0.01117650032043457	-0.08772899627685547	1.00652001953125	-0.027903099060058594	-0.08620829772949219	1.0331099853515624	-0.03687699890136719	-0.0584921989440918	1.0461300048828126	-0.006841279983520508	-0.08519010162353516	0.9279030151367188	-0.02290800094604492	-0.08406600189208985	0.9430999755859375	-0.03922000122070313	-0.08229329681396484	0.9602340087890625	-0.055167701721191405	-0.07756829833984374	0.9946110229492188	-0.001342440009117126	-0.0594109992980957	0.9155689697265625	-0.017783500671386718	-0.06006240081787109	0.9327059936523437	-0.03819950103759766	-0.05951190185546875	0.9544010009765626	-0.0571432991027832	-0.05670909881591797	0.98922802734375	-0.003684210062026977	-0.036905200958251956	0.9198660278320312	-0.019576900482177733	-0.03609389877319336	0.9363729858398437	-0.038492900848388675	-0.03601509857177734	0.956344970703125	-0.054537601470947265	-0.037775901794433596	0.99152197265625	-0.013166500091552734	-0.015165800094604493	0.9388250122070313	-0.026322200775146486	-0.015342499732971191	0.9538109741210937	-0.03728620147705078	-0.016983699798583985	0.9690050048828125	-0.04626539993286133	-0.021102100372314452	0.9946160278320313	-0.057171501159667966	-0.03138999938964844	1.0630699462890625
64	2.1333333333333333	0.0013696000576019281	-0.10023300170898437	0.9868289794921875	-0.010795599937438964	-0.08770149993896484	1.006739990234375	-0.02763990020751953	-0.0864386978149414	1.032949951171875	-0.036919300079345706	-0.058542598724365236	1.045989990234375	-0.006934299945831299	-0.08524810028076171	0.9276920166015625	-0.022948400497436523	-0.08412979888916015	0.942864990234375	-0.03925339889526367	-0.08236470031738281	0.9600499877929688	-0.05507680130004883	-0.07762190246582032	0.9945599975585937	-0.001445060014724731	-0.05941960144042969	0.915364013671875	-0.017820199966430663	-0.06008549880981445	0.93247802734375	-0.03822079849243164	-0.05957989883422852	0.9541389770507812	-0.057395999908447265	-0.056839298248291016	0.9891389770507812	-0.0038837299346923828	-0.036924999237060545	0.9196510009765625	-0.019762800216674804	-0.03616540145874023	0.9361500244140625	-0.03863660049438476	-0.03611330032348633	0.956083984375	-0.05461959838867188	-0.03788809967041016	0.99127099609375	-0.013420100212097169	-0.015155400276184082	0.9386170043945312	-0.026465599060058593	-0.015398099899291992	0.9535830078125	-0.037416900634765625	-0.017065000534057618	0.968780029296875	-0.04635549926757813	-0.021204999923706055	0.9944520263671875	-0.05728889846801758	-0.031496999740600586	1.0629000244140625
